<?xml version="1.0" standalone="no"?>
<!DOCTYPE svg PUBLIC "-//W3C//DTD SVG 20010904//EN"
 "http://www.w3.org/TR/2001/REC-SVG-20010904/DTD/svg10.dtd">
<svg version="1.0" xmlns="http://www.w3.org/2000/svg"
 width="32px" height="32px" viewBox="0 0 320.000000 320.000000"
 preserveAspectRatio="xMidYMid meet">

<g transform="translate(0.000000,320.000000) scale(0.100000,-0.100000)"
fill="#000000" stroke="none">
<path d="M845 3092 c-47 -11 -53 -38 -57 -247 l-4 -190 -70 -6 c-119 -9 -157
-54 -167 -199 l-2 -35 -189 -3 c-103 -2 -199 -7 -212 -13 -33 -12 -46 -52 -42
-126 3 -49 9 -68 28 -88 l23 -25 199 0 198 0 0 -99 0 -98 -202 -7 c-245 -9
-241 -7 -246 -119 -4 -67 -2 -76 23 -105 l27 -32 199 0 199 0 0 -100 0 -100
-199 0 -199 0 -27 -32 c-25 -29 -27 -38 -23 -105 5 -112 1 -110 246 -119 l202
-7 0 -98 0 -99 -198 0 -199 0 -23 -25 c-45 -48 -38 -188 11 -212 15 -7 96 -13
214 -15 l190 -3 6 -70 c9 -114 47 -153 160 -162 38 -3 69 -6 70 -7 0 -1 3 -86
6 -190 2 -103 8 -199 13 -212 19 -49 167 -59 215 -14 25 23 25 24 25 222 l0
198 99 0 98 0 7 -202 c9 -243 7 -240 116 -246 64 -4 73 -2 105 22 l35 27 0
200 0 199 100 0 100 0 0 -199 0 -200 35 -27 c32 -24 41 -26 104 -22 110 6 107
1 116 243 l7 205 99 0 99 0 0 -198 c0 -197 0 -199 24 -221 40 -38 154 -41 202
-7 17 13 19 32 24 218 l5 203 73 7 c114 12 148 46 160 160 l7 73 175 3 c232 3
238 4 257 50 22 54 14 144 -17 177 l-23 25 -199 0 -198 0 0 99 0 98 203 7
c247 9 242 6 242 125 0 70 -3 82 -24 105 l-24 26 -199 0 -198 0 0 100 0 100
199 0 199 0 27 32 c25 29 27 38 23 105 -5 112 -1 110 -245 119 l-203 7 0 98 0
99 198 0 199 0 23 25 c45 48 38 188 -11 212 -15 7 -96 13 -214 15 l-190 3 -6
71 c-3 51 -11 79 -28 102 -31 44 -52 53 -134 61 l-71 6 -3 175 c-4 266 -4 265
-124 265 -68 0 -80 -3 -103 -24 l-26 -24 0 -199 0 -198 -99 0 -99 0 -7 205
c-9 242 -6 237 -116 243 -63 4 -72 2 -104 -22 l-35 -27 0 -200 0 -199 -100 0
-100 0 0 199 0 200 -35 27 c-32 24 -41 26 -104 22 -110 -6 -107 -1 -116 -244
l-7 -204 -99 0 -99 0 0 198 0 199 -25 23 c-20 18 -38 24 -83 26 -31 2 -70 0
-87 -4z m682 -1014 c18 -23 314 -850 309 -863 -3 -10 -40 -13 -138 -14 l-134
-2 -19 63 -20 63 -85 3 c-47 1 -110 -1 -140 -5 l-55 -8 -18 -51 -19 -51 -66
-7 c-112 -10 -192 -7 -198 7 -2 7 48 155 111 328 64 172 135 364 158 426 32
87 45 113 61 116 12 2 71 5 132 6 79 1 114 -3 121 -11z m651 -118 c2 -69 0
-266 -3 -437 l-7 -313 -133 0 -132 0 -6 432 c-3 238 -3 436 -1 440 3 5 67 7
142 6 l137 -3 3 -125z"/>
<path d="M1381 1745 c-24 -59 -61 -199 -57 -212 6 -15 131 -19 140 -5 3 5 -12
62 -33 128 -37 116 -38 118 -50 89z"/>
</g>
</svg>
